<svg id="Layer_1" data-name="Layer 1" xmlns="http://www.w3.org/2000/svg" viewBox="0 0 510.12 246.57"><defs><style>.cls-1{fill:#fff;}</style></defs><path class="cls-1" d="M123.29,0A123.29,123.29,0,1,0,246.58,123.29,123.43,123.43,0,0,0,123.29,0Zm0,4.66A118.63,118.63,0,1,1,4.66,123.29,118.76,118.76,0,0,1,123.29,4.66Z"/><path class="cls-1" d="M174,134.45c-4.58,5.75-10.61,9.34-17.11,12.31a33.59,33.59,0,0,1-20.5,2.9,22.18,22.18,0,0,0-.59,8.39,35.79,35.79,0,0,0,5.5,16.87,18.13,18.13,0,0,0,8.66,7.4c8.09,3.18,16.35,5.2,25.21,4.78a68.45,68.45,0,0,0,21.7-4.64c2.39-.93,4.47-2.82,6.48-4.52,1.78-1.51,2.66-2,3.77-1.16s1.25,2.17.23,4c-2.92,5.32-5.76,10.7-9,15.81-3.46,5.49-8.66,9.13-14.28,12.27a51.1,51.1,0,0,1-32.74,6,10,10,0,0,1-1.35-.23c-4.28-1.36-8.54-2.79-12.83-4.09a28.23,28.23,0,0,1-8.64-4.18c-3.33-2.44-6.88-4.63-10-7.31a43,43,0,0,1-15.09-27.71,58.76,58.76,0,0,1,2.28-25.66l-11.9-2.94c-5.6,6-13.34,8.64-21.36,9.56s-16,.55-23.24-3.8c-4.18,2.65-9,3.05-13.71,3.56-2.16.24-4.53-.65-6.68-1.38a23,23,0,0,1-12.69-10.09c-3.27-5.47-2.66-11.3-.11-16.94,2.93-6.49,8.06-10.32,14.87-12,1.51-.39,3-.82,4.39-1.19,1-3.12,1.82-6.19,2.86-9.2a14.75,14.75,0,0,1,4.79-6.62c1.43-1.15,2.8-2.39,4.2-3.58,6.51-5.54,14.07-7.23,22.4-6a2.49,2.49,0,0,0,.6-.09,2.24,2.24,0,0,0,.43-.61c2.09-7.79,7.38-13.42,12.74-19,6.18-6.46,13.84-9.76,22.58-11a39,39,0,0,1,15,.47c3.74.92,7.56,1.52,11.32,2.38A40.94,40.94,0,0,1,154,70.34c2.66,3,4.91,6.39,7.31,9.55,2.71-.27,5.52-.88,8.3-.76,7,.31,13.59,1.94,19.45,6.05,4.67,3.28,7.85,7.41,8.39,13.27a4.92,4.92,0,0,0,.3.9,6.14,6.14,0,0,0,1.29.13c3.58-.41,6.68.83,9.6,2.73,1,.65,2,1.27,3.08,1.82a10.32,10.32,0,0,1,6,9.23,57.76,57.76,0,0,1-.16,7.44c-.48,6-4.37,9.94-8.85,13.34s-10,4.75-15.61,5.74c-6.66,1.18-12.23-1.28-17.71-4.44C174.91,135.07,174.46,134.75,174,134.45ZM198,103c-.35,2.2-.6,4.2-1,6.17a7.38,7.38,0,0,1-1.22,2.71,2.36,2.36,0,0,1-3,.61c-1-.42-1.1-1.38-1-2.33a5.72,5.72,0,0,1,.19-1.36c1.12-3.93.48-7.86-.16-11.74a14,14,0,0,0-1.87-4.23c-1.47-2.63-4.15-3.66-6.6-5.13-5.21-3.12-10.88-3.74-16.7-3.85a21.48,21.48,0,0,0-3.27.43,20.16,20.16,0,0,1,.76,3,29,29,0,0,1,.16,4.65,1.61,1.61,0,0,1-1.86,1.61c-.67-.11-1.26-.87-1.78-1.44-.21-.22-.17-.7-.2-1.06A19.54,19.54,0,0,0,158,83.47a46.41,46.41,0,0,0-8.92-12.2c-5-4.83-10.74-8.62-17.74-10.08-3.24-.68-6.51-1.22-9.69-2.11a36.54,36.54,0,0,0-18-.36c-4.41,1-8.75,2.06-12.48,4.85A65.85,65.85,0,0,0,77.87,77.11c-1.88,2.52-3.15,5.5-4.7,8.28a5.68,5.68,0,0,0,1,.63,20.8,20.8,0,0,1,10.47,6.31c.94,1,2.13,1.75,3.14,2.68a9.18,9.18,0,0,1,1.77,2.08,2,2,0,0,1-.35,2.76c-1,.78-1.89.44-2.73-.29a52.84,52.84,0,0,1-4.74-4.2c-3-3.37-6.88-5-11.24-5.92-8.1-1.75-15.3-.25-21.58,5.27-1.17,1-2.39,2-3.57,3-3.68,3.18-5.06,7.46-6,12,1.42.58,2.62,1,3.77,1.55.85.4,1.78,1.06,1.24,2.09-.29.55-1.3.74-2,1a1.66,1.66,0,0,1-.82,0c-4.06-.8-7.85.39-11.6,1.63-6.45,2.12-10.09,6.8-11.57,13.24a12.23,12.23,0,0,0,1.39,8.8c4.4,8,16.6,11.91,25.35,7.63a44.83,44.83,0,0,0,5.27-3.48c.81-.56,1.63-.94,2.48-.15a1.8,1.8,0,0,1,.15,2.49c-.31.52-.66,1-1.13,1.69l3,.82c.88-2,1.66-3.71,2.42-5.46.33-.76.58-1.55.93-2.3s1.08-1.51,1.93-1.06a2.74,2.74,0,0,1,1.24,1.88,6.54,6.54,0,0,1-.54,2.67c-.57,1.69-1.23,3.35-1.87,5,1.35.6,1.94-.14,2.29-1,1.37-3.4,2.67-6.82,4-10.23a15.23,15.23,0,0,1,1.34-3,1.17,1.17,0,0,1,2.14.38,4.06,4.06,0,0,1,.19,1.89,42.72,42.72,0,0,1-1.16,5.64c-.7,2.31-1.65,4.55-2.5,6.82,1.71.65,2.27-.52,2.67-1.47,1.48-3.45,2.83-7,4.24-10.44a17.18,17.18,0,0,1,1.35-3,1.93,1.93,0,0,1,1.59-.72A2,2,0,0,1,76.36,134a4.14,4.14,0,0,1-.11,2.15c-1.19,4-2.45,8-3.72,12.14a2,2,0,0,0,2.29-1.5q1.92-5,4-10c.22-.52,1-1.3,1.24-1.22.58.19,1.39.82,1.43,1.33a18,18,0,0,1-.19,4.33c-.24,1.48-.74,2.91-1.25,4.85,3.9-1.54,7-3.15,9.68-6-1.1-.87-2.08-1.53-2.92-2.34A47.45,47.45,0,0,1,83.2,134a1.58,1.58,0,0,1,0-1.48,1.62,1.62,0,0,1,1.4-.53A10.66,10.66,0,0,1,87,133.16c1.29.78,2.53,1.63,4,2.62.44-1.23.77-2.07,1-2.92.65-2,1.23-4.05,2-6,.32-.89.61-2.21,2-1.84s1.09,1.6,1,2.57a43,43,0,0,1-.79,5.17c-.38,1.74-1,3.44-1.45,5.16a2.43,2.43,0,0,0,1.5-1.46c1.77-4.82,3.89-9.54,4.06-14.81,0-1.15.24-2.4,1.78-2.79.27.32.66.57.71.87.42,2.89,1.28,5.78.34,8.72-1.13,3.58-2.33,7.15-3.48,10.73a4.88,4.88,0,0,0-.1.94l2.34.41a51,51,0,0,0,5.49-15.38c.4-2.35.79-4.71,1.21-7.06a11.89,11.89,0,0,1,.62-2.68c.21-.5.84-1.15,1.29-1.15a2,2,0,0,1,1.35,1.11,6,6,0,0,1,.42,2.67c-.37,3.56-.73,7.13-1.36,10.65-.48,2.68-1.37,5.29-2.08,7.94a81.89,81.89,0,0,0,4.21-7.14c1.28-2.42,2.53-4.87,3.62-7.39a52.39,52.39,0,0,0,1.68-5.24c.32-1.06.58-2.44,2-2.23,1.54.24,1.39,1.68,1.31,2.91a15.94,15.94,0,0,0,.14,1.92c2.28-2.15,4.31-3.87,6.09-5.81a27.59,27.59,0,0,1,7.61-5.85,30.12,30.12,0,0,0,3.54-2.12c8.15-5.9,17.42-6.4,26.92-5.44a54.63,54.63,0,0,1,9.11,2c2.23.62,3,1.63,2.72,2.87-.47,1.82-2,1.56-3.37,1.62-6.53.3-12.77,1.67-18.18,5.57-9.78,7-16,16.58-19.09,28.15a38.49,38.49,0,0,0-.67,4.45c1.94-1.43,2.68-3.37,3.44-5.29a32.89,32.89,0,0,1,1.48-3.56,1.06,1.06,0,0,1,2.05.16,5.88,5.88,0,0,1,.21,2.94c-.47,2.21-1.18,4.37-1.81,6.66,1,.32,2,.47,2.56-.76,1.5-3.64,3-7.28,4.39-11,.65-1.8.8-3.78,1.38-5.61a2.26,2.26,0,0,1,1.53-1.29c1-.15,1.44.76,1.47,1.62a38,38,0,0,1-.12,4.4c-.29,3.64-1.85,6.89-3.23,10.19a18.72,18.72,0,0,0-.51,1.9l3.34-1.19c1.56-4.26,3.09-8.56,4.73-12.83.21-.56,1-.91,1.46-1.36a6.78,6.78,0,0,1,1.19,1.64,4.72,4.72,0,0,1,0,1.91c-.15,1.79-.34,3.58-.52,5.37a22.83,22.83,0,0,0,2.52-5.1c.33-.84.52-2,1.72-1.79,1.37.21,1.18,1.45,1.22,2.43s0,1.85,0,3.48L170.9,132a28.29,28.29,0,0,1-2.22-3.51,2.48,2.48,0,0,1,.15-2.19A2.34,2.34,0,0,1,171,126a27.32,27.32,0,0,1,3.35,2.39,48.73,48.73,0,0,0,4.05,2.81c1.58.92,3.34,1.53,4.92,2.47,2.94,1.74,6.09,1.86,9.34,1.55,5.77-.54,10.72-3.07,15.29-6.44,4.24-3.14,6-7.31,4.91-12.56a33.27,33.27,0,0,1-.58-4.09,4.13,4.13,0,0,0-1.69-3.3c-2-1.47-4-3-6-4.38A9.58,9.58,0,0,0,198,103Zm1.71,82.93c-1.43.41-2.46.67-3.47,1a77.91,77.91,0,0,1-22.37,4.17c-8.93.22-17.29-1.83-25.48-5A22,22,0,0,1,137.7,177c-5.55-8.8-7.07-18.39-5.6-28.57a41.33,41.33,0,0,0,.71-5.73,22.62,22.62,0,0,1,1.5-7.51,59.81,59.81,0,0,1,11.55-19.27A39,39,0,0,1,161,105.11l1.89-.8A59.86,59.86,0,0,0,154,104a9.12,9.12,0,0,0-3.2.75c-1.75.75-3.44,1.69-5.14,2.57-3.17,1.65-6.44,3.15-9.48,5-5.37,3.3-9.54,8-13.92,12.46a50.61,50.61,0,0,0-6.47,8.18A47.23,47.23,0,0,0,108.28,152c-.52,3.72-.74,7.49-1.06,11.23a36.63,36.63,0,0,0,5.5,22.37c1,1.62,2,3.2,3,4.79l.47-.25c-.32-.82-.61-1.66-1-2.47a36.28,36.28,0,0,1-2.9-11.15,25.56,25.56,0,0,1-.09-3c0-.9-.08-2,1.12-2.22s1.58,1,1.87,1.94c.21.7.32,1.44.53,2.14,1.1,3.69,1.9,7.5,3.4,11,1.82,4.29,4.23,8.34,6.39,12.49.58,1.1,1.57,1.56,3.16,2.23-.57-1.1-.84-1.66-1.14-2.2a34.22,34.22,0,0,1-4.29-10.69,7.3,7.3,0,0,1-.1-2.71,6.86,6.86,0,0,1,1.21-2c.56.52,1.33.94,1.63,1.58.61,1.32,1,2.77,1.46,4.15,2.34,6.29,5.63,12,10.71,16.46.72.64,1.34,1.56,2.49,1.14-1.45-2.85-3-5.57-4.24-8.41a27.82,27.82,0,0,1-1.59-5.24c-.14-.57.22-1.26.5-2.58a24.47,24.47,0,0,1,2.34,2.72c1.47,2.45,2.83,5,4.22,7.43a24.73,24.73,0,0,0,7.36,8.45,5.58,5.58,0,0,0,3.95,1.34c-1.23-1.37-2.26-2.53-3.3-3.67a14.69,14.69,0,0,1-3.51-6.78c-.44-1.91-.13-3.24.86-3.37,1.58-.21,1.92,1.19,2.36,2.23,1.56,3.76,4.37,6.54,7.2,9.3a15.48,15.48,0,0,0,2.08,1.46,4.24,4.24,0,0,0-.77-1.58,28.84,28.84,0,0,1-1.88-3.93,1.8,1.8,0,0,1,.65-1.6c.4-.23,1.16,0,1.71.23a1.79,1.79,0,0,1,.77.77c1.48,2.45,3.89,3.86,6.07,5.53a4.68,4.68,0,0,0,4.37.87,60.53,60.53,0,0,0,15.33-6.71C192,199.37,196.16,193.26,199.75,185.93Zm-93.27-45,.51.28.37-1.32-.24-.09Z"/><path class="cls-1" d="M181.37,41.25c1.26.11,2.26.17,3.24.29s2.18.28,3.26.49c1.32.26,2.56.78,2.77,2.28s-1,2.28-2.1,2.94c-.94.56-1.94,1-2.94,1.5-5,2.32-5,2.3-6.15,7.62-.34,1.61-.36,3.28-.54,4.92-.21,2-.41,4-.63,6-.11,1.06-.42,2-1.59,2.32a2.43,2.43,0,0,1-2.77-1.34c-.88-1.5-1.7-3-2.47-4.6s-1.34-3-2.18-4.84c-2.29,1.52-4.34,2.84-6.35,4.23-1.22.85-2.47,2-3.95.91s-.8-2.63-.32-4c.86-2.52,1.69-5.05,2.59-7.56a3.32,3.32,0,0,0-.46-3.59c-1.06-1.26-2-2.62-3-3.93a10.88,10.88,0,0,1-.87-1.06c-1.08-1.8-.29-3.37,1.79-3.38a55.87,55.87,0,0,1,6.6.3,3.56,3.56,0,0,0,4.05-1.92c1.74-3,3.84-5.81,5.82-8.68.69-1,1.5-2,2.9-1.69a2.81,2.81,0,0,1,2.08,2.64c.3,1.9.42,3.82.64,5.73C181,38.26,181.17,39.68,181.37,41.25Zm-6.81,18.92c.77-3.53,1.55-6.64,2.11-9.8a3.6,3.6,0,0,1,2.59-3.19,5.61,5.61,0,0,0,3-1.67c-3.71-.55-4.18-.95-5-4.35-.33-1.39-.51-2.81-.84-4.66a58.15,58.15,0,0,0-3.89,5.16,5,5,0,0,1-4.94,2.8c-1.5-.07-3,0-4.91,0A18.9,18.9,0,0,0,164.37,47a4.6,4.6,0,0,1,1.07,4.6c-.34,1.34-.81,2.64-1.19,4-.16.55-.24,1.12-.43,2,1.45-.86,2.53-1.55,3.65-2.17,2.21-1.21,3.47-1,5,1.1A41.81,41.81,0,0,1,174.56,60.17Z"/><path class="cls-1" d="M69.18,168c1.93,0,3.67,0,5.41,0a2.73,2.73,0,0,1,2.8,1.35c.54,1.08,0,1.95-.62,2.79-.83,1.21-1.63,2.45-2.51,3.62a3,3,0,0,0,0,4c2.39,3.19,3.07,7,4,10.75.48,1.87-.13,3.18-1.47,3.24a4.7,4.7,0,0,1-2.54-.77c-2.93-1.83-5.8-3.78-9-5.89-1.14,2.59-2.35,5.32-3.53,8.08-.36.84-.56,1.75-1,2.58a2.29,2.29,0,0,1-2.6,1.58c-1.33-.26-1.64-1.31-1.68-2.5-.1-3.48-.21-7-.31-10.45,0-.73,0-1.47,0-2.2-.12-2.58-.11-2.63-2.65-3.37a9,9,0,0,1-5-3.27c-1.15-1.56-1-3,.67-4a17.75,17.75,0,0,1,4.85-1.77c3.34-.7,3.64-1,4.3-4.35.43-2.15,1.13-4.25,1.76-6.36a2.87,2.87,0,0,1,2.45-2.32,3.35,3.35,0,0,1,3.36,2c.92,1.9,1.72,3.85,2.57,5.79C68.72,166.91,68.9,167.33,69.18,168Zm2.72,3.91a9.87,9.87,0,0,0-1.51-.09c-4.08.5-4.1-.49-5.34-3.61a7.32,7.32,0,0,0-1.89-3.37c-.23.74-.4,1.16-.49,1.59-.2.89-.39,1.79-.55,2.69-.65,3.73-2.08,5.24-5.76,6.06-1.08.23-2.15.48-3.36.75.34.44.42.64.56.7a4.28,4.28,0,0,0,1.28.49c3.87.49,5.06,2.48,5.25,6.5.06,1.22.15,2.43.22,3.65a4.71,4.71,0,0,0,1.61-2.11c1.81-4.55,4.16-3.92,6.73-1.24a22.28,22.28,0,0,0,1.79,1.71c.68.56,1.42,1,2.54,1.86a10.71,10.71,0,0,0-.4-2.33c-.71-1.48-1.5-2.93-2.32-4.36a5.24,5.24,0,0,1,0-5.95C70.85,174,71.25,173.06,71.9,171.86Z"/><path class="cls-1" d="M187,55.85a3.33,3.33,0,0,1,3.11,3.51,3.2,3.2,0,0,1-3.35,3,3.28,3.28,0,0,1-3.09-3.51A3.17,3.17,0,0,1,187,55.85Z"/><path class="cls-1" d="M85.1,170.63a3.08,3.08,0,0,1,2.8-3.17,3,3,0,0,1,2.89,3,3.4,3.4,0,0,1-2.87,3.2A2.89,2.89,0,0,1,85.1,170.63Z"/><path class="cls-1" d="M45.53,160a2.89,2.89,0,0,1,5.78-.29,3.15,3.15,0,0,1-3.08,3.17A2.81,2.81,0,0,1,45.53,160Z"/><path class="cls-1" d="M187,181.5a2.58,2.58,0,0,1-2.16-2.75,2.84,2.84,0,0,1,2.61-2.41,2.35,2.35,0,0,1,2.14,2.44A2.78,2.78,0,0,1,187,181.5Z"/><path class="cls-1" d="M187.45,71.39a2.25,2.25,0,0,1-2.16,2.09,2.06,2.06,0,0,1-2.06-2.12,2.4,2.4,0,0,1,2.18-2.12A2.11,2.11,0,0,1,187.45,71.39Z"/><path class="cls-1" d="M146.8,48.21c-.79-1.06-1.51-1.65-1.71-2.38-.26-.95.85-2,1.83-1.88s1.79.83,1.59,1.83C148.36,46.51,147.6,47.12,146.8,48.21Z"/><path class="cls-1" d="M182.54,181.24c-1,.71-1.52,1.36-2.16,1.5-.92.2-1.51-.48-1.63-1.4s.81-2,1.64-1.7C181.05,179.84,181.56,180.48,182.54,181.24Z"/><path class="cls-1" d="M84,180.71c-.66-1-1.23-1.52-1.3-2.09a1.25,1.25,0,0,1,1.49-1.44c.5.09,1.26.89,1.23,1.32C85.35,179.1,84.69,179.67,84,180.71Z"/><path class="cls-1" d="M208,118.14c0,4-3,7.91-6.12,8.75a2,2,0,0,1-2.47-.6c-.67-1-.14-1.72.46-2.46a1.14,1.14,0,0,1,.19-.19c3.09-2.06,4.23-4.81,3.26-8.47a1.84,1.84,0,0,1,1.27-2.42c1.35-.35,2.09.51,2.45,1.62C207.54,115.84,207.84,117.36,208,118.14Z"/><path class="cls-1" d="M92.57,73.66a5.7,5.7,0,0,1-1.19,1.61,29.16,29.16,0,0,0-6.53,6.59c-.61.83-1.37,1.66-2.51,1s-.94-1.71-.48-2.69a18.24,18.24,0,0,1,7.72-8.29C91.11,71,92.56,71.72,92.57,73.66Z"/><path class="cls-1" d="M183.76,130.88a9.2,9.2,0,0,1-1.18-.14c-.82-.2-1.77-.51-1.55-1.51.13-.55.89-1.06,1.47-1.36a3.09,3.09,0,0,1,1.61-.08c1,.12,2.15.39,2.07,1.68S185,130.94,183.76,130.88Z"/><path class="cls-1" d="M197.65,129.27a2.13,2.13,0,0,1-2,2.14,2,2,0,0,1-2.15-2,1.89,1.89,0,0,1,1.87-2A2,2,0,0,1,197.65,129.27Z"/><path class="cls-1" d="M103.42,66.82A2.69,2.69,0,0,1,101,69.51,1.66,1.66,0,0,1,99.13,68a2.31,2.31,0,0,1,2.49-2.3C102.35,65.79,103,66.51,103.42,66.82Z"/><path class="cls-1" d="M60.82,135.8A5.75,5.75,0,0,1,59.73,134a1.92,1.92,0,0,1,1.78-2,1.62,1.62,0,0,1,1.77,1.64A2.36,2.36,0,0,1,60.82,135.8Z"/><path class="cls-1" d="M110.92,107.36a8.14,8.14,0,0,1,1.12,2,1.7,1.7,0,0,1-1.21,2.36c-1,.17-1.68-.48-1.77-1.6A2.43,2.43,0,0,1,110.92,107.36Z"/><path class="cls-1" d="M154.51,123c-1.08.84-1.65,1.55-2.37,1.78s-1.71-.65-1.69-1.63.62-1.86,1.63-1.73C152.79,121.47,153.4,122.21,154.51,123Z"/><path class="cls-1" d="M94.76,71.88a4.61,4.61,0,0,1-1-1.52,1.6,1.6,0,0,1,1.91-1.73A2.27,2.27,0,0,1,97,70C97.29,70.92,96.29,71.88,94.76,71.88Z"/><path class="cls-1" d="M104.37,115.19c-.87.78-1.4,1.59-2.09,1.79-.93.27-1.46-.49-1.51-1.44-.06-1.12.82-2.34,1.61-2.06S103.5,114.41,104.37,115.19Z"/><path class="cls-1" d="M108.51,63.65c.61.85,1.29,1.37,1.29,1.89,0,1.13-.92,1.43-1.93,1.39-.8,0-1.69-.32-1.39-1.2C106.72,65,107.6,64.54,108.51,63.65Z"/><path class="cls-1" d="M189.6,128.37c.71.88,1.38,1.33,1.48,1.9a1.25,1.25,0,0,1-1.41,1.52c-.54-.07-1.39-.81-1.39-1.24C188.29,130,189,129.35,189.6,128.37Z"/><path class="cls-1" d="M97.92,120.4c-.86.67-1.34,1.31-1.9,1.4a1.06,1.06,0,0,1-1.21-1.35,2.09,2.09,0,0,1,1.27-1.39C96.52,119,97.09,119.75,97.92,120.4Z"/><path class="cls-1" d="M63.4,126.18c.72,1,1.43,1.58,1.36,2s-.83,1-1.29,1.43c-.41-.4-1.14-.8-1.16-1.22S62.82,127.29,63.4,126.18Z"/><path class="cls-1" d="M123.47,170a6.05,6.05,0,0,1-.1,1.53c-.31.79-.55,2-1.12,2.21-1.18.42-1.72-.78-2-1.71a6.78,6.78,0,0,1-.27-2.65,1.67,1.67,0,0,1,1.89-1.57c1.09.07,1.56.78,1.61,1.83C123.48,169.88,123.47,170.15,123.47,170Z"/><path class="cls-1" d="M113.09,164.78a2,2,0,0,1,2.34,1.89,1.63,1.63,0,0,1-1.63,1.79A1.7,1.7,0,0,1,112,166.6,5.61,5.61,0,0,1,113.09,164.78Z"/><path class="cls-1" d="M124.87,178.75a4.78,4.78,0,0,1-1.53,1.12,1.4,1.4,0,0,1-1.55-1.71,2.31,2.31,0,0,1,1.29-1.41C124,176.45,124.85,177.36,124.87,178.75Z"/><path class="cls-1" d="M133.92,188.91c-.69-1.06-1.33-1.64-1.4-2.27a1.35,1.35,0,0,1,1.55-1.47,1.34,1.34,0,0,1,1.42,1.58C135.35,187.39,134.67,187.91,133.92,188.91Z"/><path class="cls-1" d="M145.54,194.82c-.76-.9-1.35-1.34-1.57-1.92-.28-.78.63-1.91,1.31-1.66a2.3,2.3,0,0,1,1.33,1.42C146.7,193.16,146.09,193.79,145.54,194.82Z"/><path class="cls-1" d="M169.79,45.93c.78,1.06,1.46,1.6,1.6,2.25.19.92-.47,1.56-1.43,1.65s-1.8-.38-1.69-1.33C168.35,47.77,169.06,47.11,169.79,45.93Z"/><path class="cls-1" d="M170.65,51.8c-1.18.75-1.57,1.16-2,1.2-.27,0-.6-.49-.9-.76A5,5,0,0,1,169,51.19C169.35,51.08,169.84,51.47,170.65,51.8Z"/><path class="cls-1" d="M62.35,179.1c.52.46,1.27.91,1.21,1.1a4.66,4.66,0,0,1-1,1.35c-.42-.39-1-.73-1.19-1.21C61.25,180.13,61.91,179.61,62.35,179.1Z"/><path class="cls-1" d="M63.75,177.51c-.58.34-1,.76-1.24.7s-.54-.57-.8-.89c.31-.25.62-.71.93-.71S63.25,177.08,63.75,177.51Z"/><path class="cls-1" d="M299,62.5c-2-2-5.9-6.71-8.95-6.71-1.16,0-2.11.2-2.11,1.56,0,6.17,17,5.63,17,16.75C304.86,82.65,297.47,86,290,86c-4.89,0-9.77-2.1-13.63-4.82l5.69-8.68c2.71,2.85,7.39,8.35,11.53,8.35.88,0,2.51-1.16,2.51-2.11,0-5.08-16.95-6.71-16.95-15.87,0-7.87,5.69-12.21,13.15-12.21,4.62,0,8,1.36,11.94,3.73Z"/><path class="cls-1" d="M309.48,85V80.88h2.44V46.43l-2.31.75V43.24l17.09-5.69v4.2l-2.37.81V80.88h2.37V85Z"/><path class="cls-1" d="M364.42,77.15c-3.94,5.23-9.36,8.82-16.89,8.82C337.29,86,331,78.78,331,68c0-9.43,7.12-17.37,16.69-17.37,9.15,0,14.24,6,16.61,14.32L345,72c1.56,3.86,4.34,6,8.55,6a10.34,10.34,0,0,0,8.27-3.6ZM351.73,63.66c-.94-2.92-2.5-7.87-6.17-7.87-2.64,0-3.73,2.1-3.73,5,0,2.65.75,4.41,1.15,6.24Z"/><path class="cls-1" d="M400.84,77.15C396.91,82.38,391.48,86,384,86c-10.25,0-16.55-7.19-16.55-18,0-9.43,7.12-17.37,16.68-17.37,9.16,0,14.24,6,16.62,14.32l-19.26,7c1.56,3.86,4.34,6,8.54,6a10.36,10.36,0,0,0,8.28-3.6ZM388.16,63.66c-1-2.92-2.51-7.87-6.17-7.87-2.65,0-3.73,2.1-3.73,5,0,2.65.75,4.41,1.15,6.24Z"/><path class="cls-1" d="M404.17,54.57,419,50.63V54c3.05-1.9,5.42-3.4,8.54-3.4,7.8,0,13.91,6.52,13.91,16.21S435.57,86,425.54,86A13.77,13.77,0,0,1,419,84.61V91.4h4.41v4.06h-19.2V91.4h2.38V58l-2.38.61ZM419,75.32c0,3,1,5.5,4.2,5.5,4.07,0,5.83-2.58,5.83-10.18,0-12.21-6-12.82-8.07-12.82h-2Z"/><path class="cls-1" d="M278,107.28l14.79-4.08v5c3.39-2.57,6.78-5,11.26-5a9.57,9.57,0,0,1,8.81,6c3.46-3,7.13-6,11.6-6,4.75,0,9.84,1.77,9.84,11.2v19.06h2.16v4.06H319.51v-4.06h2.37V115.75c0-3-1.08-4.41-4.13-4.41-1.5,0-3.12,1.29-4.21,2.24v19.88h2.17v4.06H298.62v-4.06h2.51V115.75c0-3-1.08-4.41-4.14-4.41-1.49,0-3.12,1.29-4.2,2.24v19.88H295v4.06H278v-4.06h2.38V110.73l-2.38.48Z"/><path class="cls-1" d="M353.3,103.2l3.93,9.23h.13c.95-3.46,4.75-9.23,9.23-9.23,3.12,0,4.2,1.43,7.05,1.43a2.44,2.44,0,0,0,2.17-.95l2,2.1L361,144.24c-2.24,5.15-5.29,8.14-11.26,8.14a13.23,13.23,0,0,1-4.88-.88l1.76-10.11a19.16,19.16,0,0,0,6.58,1.83c1.56-.07,2.71-.68,2.71-2.31a12.47,12.47,0,0,0-1.29-3.66l-11-23.74-2.11,1.5-1.83-3.94Zm14.37,10.65a8.5,8.5,0,0,1-1.42.28c-.95,0-4.07-1.23-5.29-1.23-2,0-2.24,1.29-2.24,2.51a5.52,5.52,0,0,0,.61,2.24l3.66,8Z"/><path class="cls-1" d="M300.11,160.32l-2.3.61v-4.07L315,151.17v4.34l-2.51,1v38h2.24v4.06H301.27l-1-3.59c-2.31,2.44-6,4.61-9.43,4.61-8.2,0-13.36-7.26-13.36-15.53,0-11.66,7-19.8,15.73-19.8a21.81,21.81,0,0,1,6.92,1Zm0,11.33a5.77,5.77,0,0,0-4.81-2.78c-4.75,0-5.43,4.88-5.43,11,0,5.56.68,11.32,6.92,11.32a9.65,9.65,0,0,0,3.32-.54Z"/><path class="cls-1" d="M339.32,195.39c-2.78,2.37-5.76,4.2-9.63,4.2-6.17,0-10.78-4-10.78-10.31,0-7.86,4.88-12.34,10.92-12.34h9.29v-1.7c0-2.78-1.5-4.47-4.48-4.47-3.93,0-5.7,2.85-7.53,5.22l-4.2-1.56,4.34-11.8,4.07,1.36-.61,1.83a20.92,20.92,0,0,1,8.2-1.56c7.6,0,12.62,3.25,12.62,11.26v19h2.17v4.06H340.07Zm-.2-14.38h-2a5.59,5.59,0,0,0-5.83,5.83c0,2.65.74,5.63,4.07,5.63,3.12,0,3.73-2.37,3.73-4.95Z"/><path class="cls-1" d="M357.91,167.92l13.63-3.66v8h.14c.81-2.31,2.1-8,5.29-8a9.65,9.65,0,0,1,5,1.35l.81-1.35,3.73,1.29L382.46,177a18.6,18.6,0,0,0-5.49-1.49,5.18,5.18,0,0,0-4.48,2.5v16.49h3.32v4.06h-18v-4.06h2.31V171.17l-2.17.89Z"/><path class="cls-1" d="M388.57,198.57v-4.06H391V160.05l-2.31.75v-3.94l17.1-5.69v4.2l-2.38.82v38.32h2.38v4.06Z"/><path class="cls-1" d="M411,198.57v-4.06h2.58V171.85l-2.44.48v-3.87l14.85-4.2v30.25h2.24v4.06Zm9.5-44.49c2.91,0,6,.75,6,4.28,0,4.27-5.36,5.76-8.75,5.76-2.71,0-4.61-1.42-4.61-4.21C413.19,156.59,417.6,154.08,420.52,154.08Z"/><path class="cls-1" d="M433.54,198.57v-4.06h2.38V171.65l-2.38.68v-4l14.92-4.07v5.49c3.46-2.71,6.92-5.49,11.6-5.49,8.61,0,9.84,5.9,9.84,9.63v20.62h2.3v4.06H454.91v-4.06h2.57V175.38c0-2-1.76-3-3.59-3-2.31,0-3.93,1.35-5.56,2.78v19.33H451v4.06Z"/><path class="cls-1" d="M507.41,166.15c-.82-.81-1.22-1.35-2.44-1.35a1.33,1.33,0,0,0-1.22,1.49c0,1.36,6.37,3.46,6.37,11.39,0,10.72-9.83,12.82-18,14.93v.13c5.63.61,17,1.83,17,9.43,0,7.39-9.84,9.15-13.91,9.15-6,0-12.07-1.28-12.07-6.78,0-3.32,3.66-5.49,6.58-5.83v-.14c-3.87-.33-6.24-.61-9.09-.2L476,194A65.59,65.59,0,0,0,489,190.37v-.14c-5.83-.88-11.67-4.88-11.67-12,0-9.77,7.74-14,15.13-14a39.35,39.35,0,0,1,7.46.88l.81-2.58c.82-2.51,2-3.53,5.7-3.53.81,0,1.7.14,2.51.21Zm-19.06,6.92c0,3.67,2.1,13.91,7.19,13.91,2.51,0,3.53-1.29,3.53-4.55,0-3.66-2.11-13.9-7.19-13.9C489.37,168.53,488.35,169.82,488.35,173.07Zm4.27,31.47c0,1.7.88,3.53,2.78,3.53,1.7,0,2.58-.81,2.58-2.51,0-3.12-1.76-4.14-4.14-5.63A8.44,8.44,0,0,0,492.62,204.54Z"/></svg>